<svg width="148" height="43" viewBox="0 0 148 43" fill="none" xmlns="http://www.w3.org/2000/svg">
<g clip-path="url(#clip0_99_273)">
<path d="M41.6011 42.5388C41.4055 42.5389 41.2103 42.5207 41.0181 42.4846L10.6481 36.7121C9.83758 36.557 9.12219 36.0894 8.65877 35.4118C8.19534 34.7342 8.02172 33.9019 8.17596 33.0975L13.9941 2.96896C14.1312 2.26293 14.512 1.62635 15.0709 1.16867C15.6299 0.710991 16.3321 0.460824 17.0569 0.461186C17.2525 0.460876 17.4477 0.479044 17.6399 0.515443L48.0078 6.28788C48.8174 6.44481 49.5316 6.91292 49.9947 7.59015C50.4578 8.26737 50.6322 9.09877 50.4799 9.90304L44.6617 40.031C44.5247 40.7367 44.1443 41.373 43.5858 41.8306C43.0273 42.2883 42.3255 42.5387 41.6011 42.5388Z" fill="url(#paint0_linear_99_273)"/>
<path d="M17.0547 0V0.922374C17.221 0.922493 17.3869 0.938115 17.5502 0.969035L47.9203 6.74093C48.6089 6.87459 49.2163 7.27284 49.6102 7.84889C50.0042 8.42494 50.1526 9.13208 50.0232 9.81623L44.205 39.9448C44.0726 40.629 43.6717 41.233 43.0905 41.6242C42.5094 42.0154 41.7955 42.1617 41.1056 42.031L10.7356 36.2591C10.047 36.1255 9.43956 35.7274 9.04565 35.1514C8.65173 34.5755 8.50328 33.8684 8.63265 33.1843L14.4503 3.05577C14.5672 2.45551 14.8911 1.91434 15.3663 1.52507C15.8415 1.13581 16.4384 0.922728 17.0547 0.922374V0ZM17.0547 0C16.2229 0.00191055 15.4176 0.290122 14.7761 0.815447C14.1347 1.34077 13.6969 2.07065 13.5374 2.88052L7.71928 33.0107C7.54366 33.9355 7.74424 34.8916 8.27717 35.6701C8.8101 36.4486 9.63202 36.9861 10.5633 37.1652L40.9334 42.9365C41.1543 42.9787 41.3788 43 41.6039 43C42.4356 42.9976 43.2407 42.709 43.8819 42.1834C44.523 41.6578 44.9605 40.9277 45.1195 40.1179L50.9366 9.98823C51.1122 9.06391 50.912 8.10818 50.3797 7.32984C49.8473 6.55151 49.026 6.01384 48.0953 5.83429L17.7252 0.0634809C17.5043 0.0213344 17.2797 7.891e-05 17.0547 0Z" fill="black"/>
<path d="M34.5005 1.45624H3.57854C1.85892 1.45624 0.464905 2.83917 0.464905 4.54511V35.2211C0.464905 36.927 1.85892 38.31 3.57854 38.31H34.5005C36.2201 38.31 37.6141 36.927 37.6141 35.2211V4.54511C37.6141 2.83917 36.2201 1.45624 34.5005 1.45624Z" fill="url(#paint1_linear_99_273)"/>
<path d="M34.501 1.91743C35.2025 1.92014 35.8746 2.19779 36.3707 2.68987C36.8668 3.18195 37.1468 3.84859 37.1497 4.54457V35.2211C37.147 35.9172 36.867 36.584 36.3709 37.0762C35.8748 37.5684 35.2026 37.8461 34.501 37.8488H3.57851C2.87658 37.8465 2.20402 37.569 1.70753 37.0767C1.21103 36.5845 0.93086 35.9175 0.928121 35.2211V4.54457C0.931001 3.84859 1.21101 3.18195 1.70714 2.68987C2.20326 2.19779 2.87531 1.92014 3.57687 1.91743H34.4993H34.501ZM34.4993 0.995056H3.57851C2.63008 0.997346 1.72112 1.37198 1.05028 2.03708C0.37943 2.70219 0.00123992 3.60368 -0.00164795 4.54457V35.2211C0.00109368 36.1618 0.378994 37.0632 1.0495 37.7284C1.72001 38.3935 2.62863 38.7684 3.57687 38.7712H34.4993C35.4476 38.7684 36.3562 38.3935 37.0267 37.7284C37.6972 37.0632 38.0751 36.1618 38.0778 35.2211V4.54457C38.075 3.60397 37.697 2.70271 37.0265 2.03766C36.356 1.3726 35.4475 0.997775 34.4993 0.995056Z" fill="black"/>
<path d="M22.5786 20.2185C21.4186 19.3921 20.2477 18.5788 19.2287 17.5799C19.2338 16.5707 19.2382 15.5616 19.2419 14.5524C19.2419 14.4552 19.2419 14.3581 19.2419 14.2301C19.4344 14.2507 19.5968 14.2567 19.7543 14.2843C20.5747 14.4368 21.306 14.7906 21.9825 15.2642C23.0386 16.0032 23.8798 16.9462 24.6033 17.9988C24.7127 18.1616 24.8828 18.4562 24.9939 18.619C24.9233 18.3119 24.8424 17.8593 24.7641 17.5539C24.4272 16.2398 23.6851 15.2002 22.5765 14.4118C21.4 13.5741 20.2116 12.7494 19.1823 11.7304C18.952 11.5031 18.7852 11.2123 18.5899 10.9497L18.4986 10.9182C17.8713 11.0902 17.6711 11.4781 17.6738 12.0923C17.6826 13.9458 17.6866 15.799 17.6859 17.6521C17.6775 17.7334 17.6735 17.8151 17.6738 17.8968C17.6815 19.5245 17.6853 21.1522 17.6853 22.7799C17.6853 23.515 17.6853 24.2501 17.6853 24.9855V25.3447C17.588 25.3279 17.5338 25.3241 17.4835 25.3094C15.8942 24.845 13.5293 25.7093 13.171 27.6474V28.0272C13.192 28.0665 13.2082 28.1082 13.2191 28.1514C13.2946 28.7624 13.6567 29.172 14.1746 29.4536C15.2313 30.0331 16.3235 30.0303 17.4015 29.5518C17.4994 29.5084 17.5929 29.4628 17.6831 29.4145C18.6485 28.8996 19.1691 28.1069 19.208 26.9447C19.208 26.8905 19.2112 26.8319 19.2107 26.7738C19.2107 26.6783 19.2107 26.5828 19.2107 26.4873C19.2189 24.4418 19.232 22.3963 19.2386 20.3503C19.2386 20.2532 19.2386 20.1561 19.2386 20.0286C19.4311 20.0486 19.5935 20.0551 19.751 20.0828C20.5714 20.2353 21.3027 20.589 21.9792 21.0627C23.0353 21.8022 23.8765 22.7447 24.6001 23.7973C24.7095 23.96 24.8287 24.119 24.9397 24.2818C24.8692 23.9747 24.8391 23.6578 24.7609 23.3524C24.4272 22.0464 23.6851 21.0063 22.5786 20.2185Z" fill="black"/>
<path d="M29.9139 10.31C31.0327 10.31 31.9397 9.41991 31.9397 8.32197C31.9397 7.22404 31.0327 6.33398 29.9139 6.33398C28.7951 6.33398 27.8881 7.22404 27.8881 8.32197C27.8881 9.41991 28.7951 10.31 29.9139 10.31Z" fill="black"/>
<path d="M29.3293 8.29706C29.3293 8.45088 29.3909 8.59841 29.5005 8.70719C29.6102 8.81596 29.7589 8.87707 29.9139 8.87707C30.069 8.87707 30.2177 8.81596 30.3274 8.70719C30.437 8.59841 30.4986 8.45088 30.4986 8.29706V8.32202C30.4986 8.16819 30.437 8.02066 30.3274 7.91188C30.2177 7.80311 30.069 7.742 29.9139 7.742C29.7589 7.742 29.6102 7.80311 29.5005 7.91188C29.3909 8.02066 29.3293 8.16819 29.3293 8.32202" fill="black"/>
<path d="M29.3293 8.29706C29.3293 8.45088 29.3909 8.59841 29.5005 8.70719C29.6102 8.81596 29.7589 8.87707 29.9139 8.87707C30.069 8.87707 30.2177 8.81596 30.3274 8.70719C30.437 8.59841 30.4986 8.45088 30.4986 8.29706V8.32202C30.4986 8.16819 30.437 8.02066 30.3274 7.91188C30.2177 7.80311 30.069 7.742 29.9139 7.742C29.7589 7.742 29.6102 7.80311 29.5005 7.91188C29.3909 8.02066 29.3293 8.16819 29.3293 8.32202" stroke="white" stroke-width="6" stroke-miterlimit="10"/>
</g>
<path d="M68.932 16.772L69.212 18.088C69.212 18.4053 69.1 18.6667 68.876 18.872C68.652 19.0773 68.3907 19.18 68.092 19.18C67.7933 19.18 67.5693 19.04 67.42 18.76C67.2893 18.48 67.224 18.172 67.224 17.836C67.224 16.828 67.6533 15.9227 68.512 15.12C69.3893 14.2987 70.3787 13.888 71.48 13.888H71.648C72.0213 12.4693 72.5813 11.76 73.328 11.76C73.552 11.76 73.664 12.0587 73.664 12.656C73.664 12.768 73.636 13.216 73.58 14C73.86 14.0373 74.1867 14.084 74.56 14.14C75.4373 14.2707 76.1653 14.336 76.744 14.336C77.3413 14.336 77.9387 14.2427 78.536 14.056C79.152 13.8507 79.5627 13.748 79.768 13.748C80.2907 13.748 80.552 14.0187 80.552 14.56C80.552 15.0827 80.272 15.484 79.712 15.764C79.152 16.0253 78.34 16.156 77.276 16.156C76.212 16.156 74.9147 15.9133 73.384 15.428C73.16 16.716 73.0293 17.6867 72.992 18.34C72.9547 18.9933 72.9173 19.964 72.88 21.252C73.664 21.2147 74.7467 21.196 76.128 21.196C76.3707 21.196 76.576 21.2893 76.744 21.476C76.9307 21.6627 77.024 21.8587 77.024 22.064C77.024 22.2693 76.9587 22.4373 76.828 22.568C76.6973 22.6987 76.5573 22.764 76.408 22.764L72.852 22.568C72.7773 24.3973 72.712 25.6387 72.656 26.292C72.6187 26.9453 72.4413 27.552 72.124 28.112C71.8067 28.672 71.4333 28.952 71.004 28.952C70.7613 28.952 70.4907 28.8213 70.192 28.56C69.912 28.3173 69.772 28.084 69.772 27.86C69.772 27.636 69.8 27.468 69.856 27.356C69.9307 27.2253 70.0053 27.104 70.08 26.992C70.1733 26.8613 70.2387 26.7587 70.276 26.684C70.5 26.1987 70.7053 24.864 70.892 22.68L69.8 22.82C69.6507 22.82 69.5293 22.7733 69.436 22.68C69.3427 22.568 69.296 22.4467 69.296 22.316C69.296 22.1667 69.324 22.036 69.38 21.924C69.436 21.812 69.548 21.728 69.716 21.672C69.884 21.5973 70.0053 21.5507 70.08 21.532C70.3787 21.4573 70.6773 21.42 70.976 21.42C71.0133 20.972 71.06 20.0013 71.116 18.508C71.1907 17.0147 71.2933 15.848 71.424 15.008C71.312 14.9893 71.144 14.98 70.92 14.98C69.5947 14.98 68.932 15.5773 68.932 16.772ZM81.873 28.14C80.8277 28.14 79.997 27.748 79.381 26.964C78.765 26.1613 78.457 25.256 78.457 24.248C78.457 22.2133 78.8864 20.6733 79.745 19.628C80.6037 18.5827 81.7144 18.06 83.077 18.06C83.7117 18.06 84.2344 18.2373 84.645 18.592C85.0557 18.928 85.261 19.3947 85.261 19.992C85.261 21.112 84.785 22.0547 83.833 22.82C82.8997 23.5667 81.7517 23.9587 80.389 23.996C80.4637 24.724 80.7064 25.3587 81.117 25.9C81.5464 26.4227 82.041 26.684 82.601 26.684C83.161 26.684 83.665 26.5533 84.113 26.292C84.561 26.0307 84.9717 25.6573 85.345 25.172C86.129 24.1453 86.801 22.9787 87.361 21.672C87.5104 21.336 87.6224 21.0933 87.697 20.944C87.7904 20.7947 87.8837 20.72 87.977 20.72C88.089 20.72 88.145 20.7947 88.145 20.944C88.145 21.8773 87.5757 23.2773 86.437 25.144C85.205 27.1413 83.6837 28.14 81.873 28.14ZM80.389 23.324C81.4904 23.1373 82.293 22.7827 82.797 22.26C83.3197 21.7373 83.581 21.056 83.581 20.216C83.581 19.376 83.3104 18.956 82.769 18.956C82.1157 18.956 81.565 19.4133 81.117 20.328C80.669 21.224 80.4264 22.2227 80.389 23.324ZM90.8042 19.432L90.8602 19.012C90.8602 18.676 90.6642 18.508 90.2722 18.508C89.8988 18.508 89.5348 18.76 89.1802 19.264C88.8255 19.7493 88.6482 20.1507 88.6482 20.468C88.6482 20.7853 88.6668 21.0373 88.7042 21.224C88.7415 21.4107 88.7788 21.5693 88.8162 21.7C88.8722 21.812 88.9562 21.952 89.0682 22.12C89.1802 22.288 89.2642 22.4093 89.3202 22.484L89.6282 22.876C89.7588 23.0627 89.8522 23.184 89.9082 23.24C90.8788 22.4373 92.0362 21.5413 93.3802 20.552C93.4548 20.496 93.5388 20.468 93.6322 20.468C93.8188 20.468 93.9122 20.5707 93.9122 20.776C93.9122 20.9813 93.8282 21.14 93.6602 21.252C92.4655 22.0173 91.3362 22.848 90.2722 23.744C90.6828 24.3413 90.8882 24.9947 90.8882 25.704C90.8882 26.4133 90.6175 27.02 90.0762 27.524C89.5348 28.028 88.8442 28.28 88.0042 28.28C87.1642 28.28 86.7442 27.8787 86.7442 27.076C86.7442 26.4973 87.3602 25.6107 88.5922 24.416C88.4988 24.304 88.3308 24.1267 88.0882 23.884C87.8455 23.6227 87.6588 23.4173 87.5282 23.268C87.4162 23.1187 87.2762 22.9227 87.1082 22.68C86.8095 22.2133 86.6602 21.7093 86.6602 21.168C86.6602 20.0667 87.0148 19.18 87.7242 18.508C88.4335 17.8173 89.1895 17.472 89.9922 17.472C90.4962 17.472 90.8882 17.612 91.1682 17.892C91.4482 18.1533 91.5882 18.424 91.5882 18.704C91.5882 19.3387 91.4388 19.656 91.1402 19.656C90.9162 19.656 90.8042 19.5813 90.8042 19.432ZM89.0122 24.948C88.2655 25.6947 87.8922 26.3013 87.8922 26.768C87.8922 27.216 88.1255 27.44 88.5922 27.44C88.8722 27.44 89.1055 27.328 89.2922 27.104C89.7028 26.544 89.6095 25.8253 89.0122 24.948ZM98.7564 23.436C97.2817 26.572 96.031 28.14 95.0044 28.14C93.9964 28.14 93.399 28.0187 93.2124 27.776C93.0444 27.5333 92.9604 26.7307 92.9604 25.368C92.9604 24.0053 93.091 22.036 93.3524 19.46C92.419 19.2733 91.9244 18.8907 91.8684 18.312C91.8684 18.0133 92.0644 17.864 92.4564 17.864C92.8484 17.864 93.1937 17.9387 93.4924 18.088C93.6604 16.744 93.8564 15.3813 94.0804 14C94.1364 13.6453 94.3137 13.3093 94.6124 12.992C94.911 12.6747 95.2004 12.516 95.4804 12.516C95.723 12.516 95.8444 12.8987 95.8444 13.664C95.8444 14.0187 95.7137 15.652 95.4524 18.564C95.9564 18.4707 96.507 18.284 97.1044 18.004C97.7204 17.724 98.0844 17.584 98.1964 17.584C98.5324 17.584 98.7004 17.6867 98.7004 17.892C98.719 18.0787 98.3737 18.34 97.6644 18.676C96.955 18.9933 96.1897 19.236 95.3684 19.404C95.1444 22.1293 95.0324 24.192 95.0324 25.592C95.0324 26.3387 95.1444 26.712 95.3684 26.712C95.7044 26.6933 96.1524 26.3013 96.7124 25.536C97.2724 24.7707 97.823 23.7813 98.3644 22.568C98.9244 21.336 99.2604 20.72 99.3724 20.72C99.503 20.72 99.5684 20.7947 99.5684 20.944C99.5684 21.4667 99.2977 22.2973 98.7564 23.436ZM99.1532 14.308C99.1532 13.972 99.3305 13.6827 99.6852 13.44C100.04 13.1973 100.357 13.076 100.637 13.076C101.141 13.076 101.393 13.3653 101.393 13.944C101.393 14.5227 101.244 15.0267 100.945 15.456C100.647 15.8667 100.227 16.072 99.6852 16.072C99.3305 16.072 99.1532 15.484 99.1532 14.308ZM99.9652 28.14C99.2372 28.14 98.6865 27.9907 98.3132 27.692C98.1825 27.5613 98.1172 27.0947 98.1172 26.292C98.1172 25.4893 98.1732 24.1547 98.2852 22.288C98.4159 20.4027 98.5279 19.3853 98.6212 19.236C98.7145 19.0867 99.0039 18.8067 99.4892 18.396C99.9745 17.9853 100.348 17.78 100.609 17.78C100.889 17.78 101.029 18.1347 101.029 18.844C101.029 19.0307 100.973 19.3947 100.861 19.936C100.768 20.4773 100.656 20.8693 100.525 21.112C100.283 21.728 100.161 23.3427 100.161 25.956C100.161 26.46 100.217 26.712 100.329 26.712C100.647 26.6933 101.085 26.3013 101.645 25.536C102.205 24.752 102.756 23.7533 103.297 22.54C103.857 21.3267 104.193 20.72 104.305 20.72C104.436 20.72 104.501 20.7947 104.501 20.944C104.501 21.4667 104.231 22.2973 103.689 23.436C102.215 26.572 100.973 28.14 99.9652 28.14ZM106.512 26.768C107.184 26.768 107.772 26.4227 108.276 25.732C108.78 25.0227 109.153 24.164 109.396 23.156C108.724 22.9507 108.21 22.596 107.856 22.092C107.501 21.5693 107.324 20.972 107.324 20.3C107.324 19.628 107.492 19.04 107.828 18.536C108.182 18.032 108.686 17.78 109.34 17.78C109.732 17.78 110.03 18.032 110.236 18.536C110.441 19.0213 110.544 19.572 110.544 20.188C110.544 20.804 110.497 21.42 110.404 22.036C110.684 22.148 110.982 22.204 111.3 22.204C112.028 22.204 112.728 21.868 113.4 21.196C113.736 20.86 113.96 20.692 114.072 20.692C114.202 20.692 114.268 20.7853 114.268 20.972C114.268 21.1587 114.146 21.3827 113.904 21.644C112.914 22.7453 111.664 23.296 110.152 23.296C109.797 24.6587 109.246 25.8067 108.5 26.74C107.753 27.6733 106.838 28.14 105.756 28.14C105.121 28.14 104.598 27.8693 104.188 27.328C103.497 26.4507 103.152 25.1627 103.152 23.464C103.152 22.8853 103.198 22.1387 103.292 21.224C103.385 20.3093 103.488 19.7493 103.6 19.544C103.73 19.3387 104.029 19.0867 104.496 18.788C104.981 18.4893 105.317 18.34 105.504 18.34C105.784 18.34 105.924 18.508 105.924 18.844C105.924 19.796 105.681 20.832 105.196 21.952C105.196 23.2773 105.298 24.416 105.504 25.368C105.728 26.3013 106.064 26.768 106.512 26.768ZM109.06 18.844C108.91 18.844 108.836 19.152 108.836 19.768C108.836 20.384 109.116 20.972 109.676 21.532C109.713 21.308 109.732 21.084 109.732 20.86C109.732 19.516 109.508 18.844 109.06 18.844ZM114.145 13.048C114.145 12.8427 114.322 12.5813 114.677 12.264C115.031 11.928 115.349 11.76 115.629 11.76C115.909 11.76 116.161 11.9373 116.385 12.292C116.609 12.628 116.721 13.0293 116.721 13.496C116.721 13.9627 116.375 14.6813 115.685 15.652C115.013 16.604 114.443 17.08 113.977 17.08C113.827 17.08 113.753 16.9773 113.753 16.772C113.753 16.5667 113.939 16.2213 114.313 15.736C114.686 15.2507 114.873 14.8773 114.873 14.616C114.873 14.336 114.751 14.056 114.509 13.776C114.266 13.496 114.145 13.2533 114.145 13.048ZM124.579 28.14C123.851 28.14 123.3 27.9907 122.927 27.692C122.796 27.5613 122.731 27.2347 122.731 26.712C122.731 26.1707 122.75 25.452 122.787 24.556C122.302 25.7693 121.816 26.6747 121.331 27.272C120.864 27.8507 120.258 28.14 119.511 28.14C118.764 28.14 118.111 27.7947 117.551 27.104C116.991 26.3947 116.711 25.2933 116.711 23.8C116.711 22.288 117.131 20.9533 117.971 19.796C118.83 18.6387 119.95 18.06 121.331 18.06C121.928 18.06 122.6 18.452 123.347 19.236C123.496 19.0307 123.758 18.788 124.131 18.508C124.523 18.2093 124.85 18.06 125.111 18.06C125.391 18.06 125.531 18.4147 125.531 19.124C125.531 19.3107 125.475 19.6747 125.363 20.216C125.27 20.7573 125.158 21.1493 125.027 21.392C124.859 21.8213 124.775 23.3427 124.775 25.956C124.775 26.46 124.831 26.712 124.943 26.712C125.26 26.6933 125.699 26.3013 126.259 25.536C126.819 24.752 127.37 23.7533 127.911 22.54C128.471 21.3267 128.807 20.72 128.919 20.72C129.05 20.72 129.115 20.7947 129.115 20.944C129.115 21.4667 128.844 22.2973 128.303 23.436C126.828 26.572 125.587 28.14 124.579 28.14ZM121.163 19.18C120.64 19.18 120.08 19.572 119.483 20.356C118.904 21.1213 118.615 22.0267 118.615 23.072C118.615 24.1173 118.764 24.976 119.063 25.648C119.38 26.32 119.791 26.656 120.295 26.656C120.911 26.656 121.816 25.116 123.011 22.036C123.03 21.8867 123.048 21.6347 123.067 21.28C123.104 20.9067 123.132 20.6267 123.151 20.44C122.983 20.1413 122.684 19.8613 122.255 19.6C121.844 19.32 121.48 19.18 121.163 19.18ZM128.298 19.292C128.503 19.0493 128.83 18.7413 129.278 18.368C129.726 17.976 130.08 17.78 130.342 17.78C130.603 17.78 130.734 18.1533 130.734 18.9C130.734 19.628 130.538 20.3467 130.146 21.056C130.071 21.392 130.015 21.8773 129.978 22.512C130.519 21.0373 131.06 19.9267 131.602 19.18C132.143 18.4333 132.796 18.06 133.562 18.06C134.346 18.06 135.027 18.4147 135.606 19.124C136.184 19.8147 136.474 20.916 136.474 22.428C136.474 23.9213 136.044 25.2467 135.186 26.404C134.346 27.5613 133.235 28.14 131.854 28.14C131.144 28.14 130.426 27.8787 129.698 27.356C129.698 30.9213 129.492 33.6373 129.082 35.504C129.044 35.672 128.792 35.952 128.326 36.344C127.878 36.7547 127.551 36.96 127.346 36.96C127.122 36.96 126.963 36.8107 126.87 36.512C126.776 36.2133 126.73 35.9333 126.73 35.672C126.73 33.7493 127.122 31.276 127.906 28.252C128.036 26.4973 128.12 24.5747 128.158 22.484C128.214 20.3933 128.26 19.3293 128.298 19.292ZM132.022 27.132C132.563 27.132 133.123 26.7587 133.702 26.012C134.28 25.2467 134.57 24.3133 134.57 23.212C134.57 22.092 134.411 21.2053 134.094 20.552C133.795 19.88 133.384 19.544 132.862 19.544C131.966 19.544 130.948 21.4013 129.81 25.116C129.772 25.6387 129.754 26.0493 129.754 26.348C130.276 26.8707 131.032 27.132 132.022 27.132ZM138.388 19.292C138.593 19.0493 138.92 18.7413 139.368 18.368C139.816 17.976 140.17 17.78 140.432 17.78C140.693 17.78 140.824 18.1533 140.824 18.9C140.824 19.628 140.628 20.3467 140.236 21.056C140.161 21.392 140.105 21.8773 140.068 22.512C140.609 21.0373 141.15 19.9267 141.692 19.18C142.233 18.4333 142.886 18.06 143.652 18.06C144.436 18.06 145.117 18.4147 145.696 19.124C146.274 19.8147 146.564 20.916 146.564 22.428C146.564 23.9213 146.134 25.2467 145.276 26.404C144.436 27.5613 143.325 28.14 141.944 28.14C141.234 28.14 140.516 27.8787 139.788 27.356C139.788 30.9213 139.582 33.6373 139.172 35.504C139.134 35.672 138.882 35.952 138.416 36.344C137.968 36.7547 137.641 36.96 137.436 36.96C137.212 36.96 137.053 36.8107 136.96 36.512C136.866 36.2133 136.82 35.9333 136.82 35.672C136.82 33.7493 137.212 31.276 137.996 28.252C138.126 26.4973 138.21 24.5747 138.248 22.484C138.304 20.3933 138.35 19.3293 138.388 19.292ZM142.112 27.132C142.653 27.132 143.213 26.7587 143.792 26.012C144.37 25.2467 144.66 24.3133 144.66 23.212C144.66 22.092 144.501 21.2053 144.184 20.552C143.885 19.88 143.474 19.544 142.952 19.544C142.056 19.544 141.038 21.4013 139.9 25.116C139.862 25.6387 139.844 26.0493 139.844 26.348C140.366 26.8707 141.122 27.132 142.112 27.132Z" fill="black"/>
<defs>
<linearGradient id="paint0_linear_99_273" x1="17.932" y1="41.0815" x2="40.452" y2="1.76281" gradientUnits="userSpaceOnUse">
<stop stop-color="#F5F060"/>
<stop offset="0.5" stop-color="#63D6AE"/>
<stop offset="1" stop-color="#0A3D61"/>
</linearGradient>
<linearGradient id="paint1_linear_99_273" x1="6.92297" y1="40.7027" x2="30.8669" y2="-1.10209" gradientUnits="userSpaceOnUse">
<stop stop-color="#FEAC5E"/>
<stop offset="0.32" stop-color="#B2CE37"/>
<stop offset="0.73" stop-color="#63D7AF"/>
<stop offset="1" stop-color="#1CC2DF"/>
</linearGradient>
<clipPath id="clip0_99_273">
<rect width="51" height="43" fill="white"/>
</clipPath>
</defs>
</svg>
